<?xml version="1.0" encoding="UTF-8"?>
<svg width="30px" height="30px" viewBox="0 0 30 30" version="1.1" xmlns="http://www.w3.org/2000/svg" xmlns:xlink="http://www.w3.org/1999/xlink">
    <title>edit-square</title>
    <g id="【办公逸-薪酬】智能算薪-数据采集" stroke="none" stroke-width="1" fill="none" fill-rule="evenodd" fill-opacity="0.45">
        <g id="01数据填报" transform="translate(-296.000000, -372.000000)" fill="#000000" fill-rule="nonzero">
            <g id="基础组件/单元格/主标题备份-30" transform="translate(32.000000, 208.000000)">
                <g id="edit-square" transform="translate(0.000000, 140.000000)">
                    <g transform="translate(264.000000, 24.000000)">
                        <rect id="矩形" opacity="0" x="0" y="0" width="30" height="30"></rect>
                        <path d="M26.484375,15 L24.84375,15 C24.7148438,15 24.609375,15.1054688 24.609375,15.234375 L24.609375,24.609375 L5.390625,24.609375 L5.390625,5.390625 L14.765625,5.390625 C14.8945313,5.390625 15,5.28515625 15,5.15625 L15,3.515625 C15,3.38671875 14.8945313,3.28125 14.765625,3.28125 L4.21875,3.28125 C3.70019531,3.28125 3.28125,3.70019531 3.28125,4.21875 L3.28125,25.78125 C3.28125,26.2998047 3.70019531,26.71875 4.21875,26.71875 L25.78125,26.71875 C26.2998047,26.71875 26.71875,26.2998047 26.71875,25.78125 L26.71875,15.234375 C26.71875,15.1054688 26.6132813,15 26.484375,15 Z M10.4267578,15.6708984 L10.3710636,19.1542969 C10.3681641,19.4150391 10.5791016,19.6289062 10.8398438,19.6289062 L10.8515625,19.6289062 L14.3085938,19.5439453 C14.3671875,19.5410156 14.4257813,19.5175781 14.4667969,19.4765625 L26.6513672,7.31835938 C26.7421875,7.22753906 26.7421875,7.078125 26.6513672,6.98730469 L23.0097656,3.34863281 C22.9628906,3.30175781 22.9042969,3.28125 22.8427734,3.28125 C22.78125,3.28125 22.7226563,3.3046875 22.6757813,3.34863281 L10.4941406,15.5068359 C10.453125,15.5507812 10.4267578,15.609375 10.4267578,15.6708984 Z M12.2871094,16.3623047 L22.8427734,5.83007812 L24.1669922,7.15136719 L13.6054688,17.6894531 L12.2666016,17.7216797 L12.2871094,16.3623047 L12.2871094,16.3623047 Z" id="形状"></path>
                    </g>
                </g>
            </g>
        </g>
    </g>
</svg>