<?xml version="1.0" encoding="UTF-8"?>
<svg width="36px" height="36px" viewBox="0 0 36 36" version="1.1" xmlns="http://www.w3.org/2000/svg" xmlns:xlink="http://www.w3.org/1999/xlink">
    <title>图标/右箭头</title>
    <g id="【办公逸-薪酬】智能算薪-数据采集" stroke="none" stroke-width="1" fill="none" fill-rule="evenodd">
        <g id="01.2-查看记录" transform="translate(-650.000000, -752.000000)" fill="#000000">
            <g id="基础组件/单元格/主标题备份-35" transform="translate(32.000000, 656.000000)">
                <g id="RightOutlined" transform="translate(618.000000, 96.000000)">
                    <rect id="矩形" fill-opacity="0.45" opacity="0" x="0" y="0" width="36" height="36"></rect>
                    <path d="M13.0751565,3.86219264 L26.6825537,16.9959429 L26.6825537,16.9959429 C27.0978589,17.4094392 27.1222886,18.0647366 26.7558428,18.5066801 L26.6825537,18.5869331 L13.0759668,32.1334676 C13.0010038,32.2080998 12.8995304,32.25 12.7937503,32.25 L10.7321673,32.25 C10.5112534,32.25 10.3321673,32.0709139 10.3321673,31.85 C10.3321673,31.7436115 10.3745496,31.641606 10.4499413,31.566542 L24.240145,17.8362703 L24.240145,17.8362703 L10.4692117,4.4366816 C10.3108818,4.28262122 10.3074207,4.02937888 10.4614811,3.871049 C10.5367854,3.79365775 10.6401805,3.75 10.7481627,3.75 L12.7973671,3.75 C12.901001,3.75 13.0005899,3.79022164 13.0751565,3.86219264 Z" id="right" fill-opacity="0.382941176" fill-rule="nonzero"></path>
                </g>
            </g>
        </g>
    </g>
</svg>