<?xml version="1.0" encoding="UTF-8"?>
<svg width="30px" height="30px" viewBox="0 0 30 30" version="1.1" xmlns="http://www.w3.org/2000/svg" xmlns:xlink="http://www.w3.org/1999/xlink">
    <title>time-circle</title>
    <g id="【办公逸-薪酬】智能算薪-数据采集" stroke="none" stroke-width="1" fill="none" fill-rule="evenodd" fill-opacity="0.45">
        <g id="01数据填报" transform="translate(-124.000000, -606.000000)" fill="#000000" fill-rule="nonzero">
            <g id="基础组件/单元格/主标题备份-31" transform="translate(32.000000, 442.000000)">
                <g id="time-circle" transform="translate(0.000000, 140.000000)">
                    <g transform="translate(92.000000, 24.000000)">
                        <rect id="矩形" opacity="0" x="0" y="0" width="30" height="30"></rect>
                        <path d="M15,1.875 C7.75195313,1.875 1.875,7.75195313 1.875,15 C1.875,22.2480469 7.75195313,28.125 15,28.125 C22.2480469,28.125 28.125,22.2480469 28.125,15 C28.125,7.75195313 22.2480469,1.875 15,1.875 Z M15,25.8984375 C8.98242188,25.8984375 4.1015625,21.0175781 4.1015625,15 C4.1015625,8.98242188 8.98242188,4.1015625 15,4.1015625 C21.0175781,4.1015625 25.8984375,8.98242188 25.8984375,15 C25.8984375,21.0175781 21.0175781,25.8984375 15,25.8984375 Z M20.1181641,18.7089844 L15.9404297,15.6884766 L15.9404297,8.4375 C15.9404297,8.30859375 15.8349609,8.203125 15.7060547,8.203125 L14.296875,8.203125 C14.1679688,8.203125 14.0625,8.30859375 14.0625,8.4375 L14.0625,16.5058594 C14.0625,16.5820313 14.0976562,16.6523438 14.1591797,16.6962891 L19.0048828,20.2294922 C19.1103516,20.3056641 19.2568359,20.2822266 19.3330078,20.1796875 L20.1708984,19.0371094 C20.2470703,18.9287109 20.2236328,18.7822266 20.1181641,18.7089844 L20.1181641,18.7089844 Z" id="形状"></path>
                    </g>
                </g>
            </g>
        </g>
    </g>
</svg>