<?xml version="1.0" encoding="UTF-8"?>
<svg width="30px" height="30px" viewBox="0 0 30 30" version="1.1" xmlns="http://www.w3.org/2000/svg" xmlns:xlink="http://www.w3.org/1999/xlink">
    <title>down-circle</title>
    <g id="【办公逸-薪酬】智能算薪-数据采集" stroke="none" stroke-width="1" fill="none" fill-rule="evenodd">
        <g id="01.11-填报数据" transform="translate(-96.000000, -555.000000)" fill="#2ABB97" fill-rule="nonzero">
            <g id="down-circle" transform="translate(111.000000, 570.000000) scale(1, -1) translate(-111.000000, -570.000000) translate(96.000000, 555.000000)">
                <rect id="矩形" opacity="0" x="0" y="0" width="30" height="30"></rect>
                <path d="M20.2148438,11.8652344 L18.8408203,11.8652344 C18.5419922,11.8652344 18.2578125,12.0087891 18.0820312,12.2519531 L15,16.5117188 L11.9179687,12.2519531 C11.7421875,12.0087891 11.4609375,11.8652344 11.1591797,11.8652344 L9.78515625,11.8652344 C9.59472656,11.8652344 9.48339844,12.0820312 9.59472656,12.2373047 L14.8095703,19.4443359 C14.9033203,19.5732422 15.09375,19.5732422 15.1875,19.4443359 L20.4023438,12.2373047 C20.5166016,12.0820313 20.4052734,11.8652344 20.2148438,11.8652344 Z" id="路径"></path>
                <path d="M15,1.875 C7.75195313,1.875 1.875,7.75195313 1.875,15 C1.875,22.2480469 7.75195313,28.125 15,28.125 C22.2480469,28.125 28.125,22.2480469 28.125,15 C28.125,7.75195313 22.2480469,1.875 15,1.875 Z M15,25.8984375 C8.98242188,25.8984375 4.1015625,21.0175781 4.1015625,15 C4.1015625,8.98242188 8.98242188,4.1015625 15,4.1015625 C21.0175781,4.1015625 25.8984375,8.98242188 25.8984375,15 C25.8984375,21.0175781 21.0175781,25.8984375 15,25.8984375 Z" id="形状"></path>
            </g>
        </g>
    </g>
</svg>