<?xml version="1.0" encoding="UTF-8"?>
<svg width="16px" height="16px" viewBox="0 0 16 16" version="1.1" xmlns="http://www.w3.org/2000/svg" xmlns:xlink="http://www.w3.org/1999/xlink">
    <title>plus备份</title>
    <g id="【薪酬】" stroke="none" stroke-width="1" fill="none" fill-rule="evenodd">
        <g id="【办公逸-薪酬】智能算薪-薪资计算-薪资组-配置计薪规则-增加自定义公式" transform="translate(-415.000000, -745.000000)" fill="#8C8C8C" fill-rule="nonzero">
            <g id="编组-23" transform="translate(415.000000, 505.000000)">
                <g id="编组-22" transform="translate(0.000000, 51.000000)">
                    <g id="plus备份" transform="translate(0.000000, 189.000000)">
                        <rect id="矩形" opacity="0" x="0" y="0" width="16" height="16"></rect>
                        <path d="M7.53125,2.375 L8.46875,2.375 C8.55208333,2.375 8.59375,2.41666667 8.59375,2.5 L8.59375,13.5 C8.59375,13.5833333 8.55208333,13.625 8.46875,13.625 L7.53125,13.625 C7.44791667,13.625 7.40625,13.5833333 7.40625,13.5 L7.40625,2.5 C7.40625,2.41666667 7.44791667,2.375 7.53125,2.375 Z M2.75,7.40625 L13.25,7.40625 C13.3333333,7.40625 13.375,7.44791667 13.375,7.53125 L13.375,8.46875 C13.375,8.55208333 13.3333333,8.59375 13.25,8.59375 L2.75,8.59375 C2.66666667,8.59375 2.625,8.55208333 2.625,8.46875 L2.625,7.53125 C2.625,7.44791667 2.66666667,7.40625 2.75,7.40625 Z" id="形状"></path>
                    </g>
                </g>
            </g>
        </g>
    </g>
</svg>