<?xml version="1.0" encoding="UTF-8"?>
<svg width="16px" height="16px" viewBox="0 0 16 16" version="1.1" xmlns="http://www.w3.org/2000/svg" xmlns:xlink="http://www.w3.org/1999/xlink">
    <title>apartment</title>
    <g id="【人事系统】组织管理" stroke="none" stroke-width="1" fill="none" fill-rule="evenodd">
        <g id="【办公逸-人事系统】组织管理" transform="translate(-1490.000000, -563.000000)" fill="#1AAC88" fill-rule="nonzero">
            <g id="编组-9" transform="translate(1480.000000, 522.000000)">
                <g id="apartment" transform="translate(10.000000, 41.000000)">
                    <rect id="矩形" opacity="0" x="0" y="0" width="16" height="16"></rect>
                    <path d="M14.1875,10 L12.5625,10 L12.5625,7.625 C12.5625,7.55625 12.50625,7.5 12.4375,7.5 L8.5625,7.5 L8.5625,6 L10.25,6 C10.3875,6 10.5,5.8875 10.5,5.75 L10.5,1.25 C10.5,1.1125 10.3875,1 10.25,1 L5.75,1 C5.6125,1 5.5,1.1125 5.5,1.25 L5.5,5.75 C5.5,5.8875 5.6125,6 5.75,6 L7.4375,6 L7.4375,7.5 L3.5625,7.5 C3.49375,7.5 3.4375,7.55625 3.4375,7.625 L3.4375,10 L1.8125,10 C1.675,10 1.5625,10.1125 1.5625,10.25 L1.5625,14.75 C1.5625,14.8875 1.675,15 1.8125,15 L6.3125,15 C6.45,15 6.5625,14.8875 6.5625,14.75 L6.5625,10.25 C6.5625,10.1125 6.45,10 6.3125,10 L4.5625,10 L4.5625,8.625 L11.4375,8.625 L11.4375,10 L9.6875,10 C9.55,10 9.4375,10.1125 9.4375,10.25 L9.4375,14.75 C9.4375,14.8875 9.55,15 9.6875,15 L14.1875,15 C14.325,15 14.4375,14.8875 14.4375,14.75 L14.4375,10.25 C14.4375,10.1125 14.325,10 14.1875,10 Z M5.375,11.1875 L5.375,13.8125 L2.75,13.8125 L2.75,11.1875 L5.375,11.1875 Z M6.6875,4.8125 L6.6875,2.1875 L9.3125,2.1875 L9.3125,4.8125 L6.6875,4.8125 Z M13.25,13.8125 L10.625,13.8125 L10.625,11.1875 L13.25,11.1875 L13.25,13.8125 Z" id="形状"></path>
                </g>
            </g>
        </g>
    </g>
</svg>