<?xml version="1.0" encoding="UTF-8"?>
<svg width="18px" height="18px" viewBox="0 0 18 18" version="1.1" xmlns="http://www.w3.org/2000/svg" xmlns:xlink="http://www.w3.org/1999/xlink">
    <title>编组 2</title>
    <g id="【人事系统】组织管理" stroke="none" stroke-width="1" fill="none" fill-rule="evenodd">
        <g id="【办公逸-人事系统】组织管理" transform="translate(-492.000000, -562.000000)">
            <g id="编组-2" transform="translate(492.000000, 562.000000)">
                <rect id="矩形" fill="#1AAC88" opacity="0.140000001" x="0" y="0" width="18" height="18" rx="1.8"></rect>
                <g id="公司" transform="translate(2.700000, 2.700000)" fill="#2ABB97" fill-rule="nonzero">
                    <rect id="矩形" opacity="0" x="0" y="0" width="12.6" height="12.6"></rect>
                    <path d="M11.5668,10.6155 L10.962,10.6155 L10.962,3.7296 C10.962,3.528 10.8423,3.3516 10.6596,3.2634 L7.6419,1.6884 C7.4718,1.6128 7.2828,1.6128 7.1127,1.6884 C6.9237,1.764 6.804,1.9467 6.8103,2.9421 L6.8103,11.403 L6.2055,11.403 L6.2055,2.1042 C6.2055,1.0836 6.2055,0.9324 5.9787,0.8505 C5.7834,0.7686 5.5692,0.7686 5.3739,0.8505 L1.9215,2.6712 C1.7388,2.7594 1.6191,2.9484 1.6191,3.15 L1.6191,10.6218 L1.0143,10.6218 C0.8631,10.6218 0.7875,10.7037 0.7875,10.7793 L0.7875,11.655 C0.7875,11.7306 0.8631,11.8125 1.0143,11.8125 L11.5668,11.8125 C11.6361,11.8125 11.781,11.7306 11.7936,11.655 L11.7936,10.7856 C11.8125,10.6911 11.6487,10.6155 11.5668,10.6155 Z M4.4793,9.5067 C4.4793,9.5949 4.41,9.6642 4.3218,9.6642 L3.4713,9.6642 C3.3831,9.6642 3.3138,9.5949 3.3138,9.5067 L3.3138,8.7696 C3.3138,8.6814 3.3831,8.6121 3.4713,8.6121 L4.3407,8.6121 C4.4289,8.6121 4.4982,8.6814 4.4982,8.7696 L4.4793,9.5067 L4.4793,9.5067 Z M4.4793,7.2828 C4.4793,7.371 4.41,7.4403 4.3218,7.4403 L3.4713,7.4403 C3.3831,7.4403 3.3138,7.371 3.3138,7.2828 L3.3138,6.5331 C3.3138,6.4449 3.3831,6.3756 3.4713,6.3756 L4.3407,6.3756 C4.4289,6.3756 4.4982,6.4449 4.4982,6.5331 L4.4793,7.2828 L4.4793,7.2828 Z M4.4793,5.0652 C4.4793,5.1534 4.41,5.2227 4.3218,5.2227 L3.4713,5.2227 C3.3831,5.2227 3.3138,5.1534 3.3138,5.0652 L3.3138,4.3092 C3.3138,4.221 3.3831,4.1517 3.4713,4.1517 L4.3407,4.1517 C4.4289,4.1517 4.4982,4.221 4.4982,4.3092 L4.4793,5.0652 L4.4793,5.0652 Z M9.45,9.5004 C9.45,9.5886 9.3807,9.6579 9.2925,9.6579 L8.4231,9.6579 C8.3349,9.6579 8.2656,9.5886 8.2656,9.5004 L8.2656,8.757 C8.2656,8.6688 8.3349,8.5995 8.4231,8.5995 L9.2925,8.5995 C9.3807,8.5995 9.45,8.6688 9.45,8.757 L9.45,9.5004 Z M9.45,7.2765 C9.45,7.3647 9.3807,7.434 9.2925,7.434 L8.4231,7.434 C8.3349,7.434 8.2656,7.3647 8.2656,7.2765 L8.2656,6.5331 C8.2656,6.4449 8.3349,6.3756 8.4231,6.3756 L9.2925,6.3756 C9.3807,6.3756 9.45,6.4449 9.45,6.5331 L9.45,7.2765 L9.45,7.2765 Z M9.45,5.0589 C9.45,5.1471 9.3807,5.2164 9.2925,5.2164 L8.4231,5.2164 C8.3349,5.2164 8.2656,5.1471 8.2656,5.0589 L8.2656,4.3092 C8.2656,4.221 8.3349,4.1517 8.4231,4.1517 L9.2925,4.1517 C9.3807,4.1517 9.45,4.221 9.45,4.3092 L9.45,5.0589 Z" id="形状"></path>
                </g>
            </g>
        </g>
    </g>
</svg>