<?xml version="1.0" encoding="UTF-8"?>
<svg width="16px" height="16px" viewBox="0 0 16 16" version="1.1" xmlns="http://www.w3.org/2000/svg" xmlns:xlink="http://www.w3.org/1999/xlink">
    <title>delete备份 4</title>
    <g id="【薪酬】" stroke="none" stroke-width="1" fill="none" fill-rule="evenodd">
        <g id="【办公逸-薪酬】智能算薪-薪资计算-薪资组-配置计薪规则-增加自定义公式" transform="translate(-491.000000, -808.000000)" fill="#FF3141" fill-rule="nonzero">
            <g id="编组-23" transform="translate(415.000000, 505.000000)">
                <g id="编组-22" transform="translate(0.000000, 51.000000)">
                    <g id="delete备份-4" transform="translate(76.000000, 252.000000)">
                        <rect id="矩形" opacity="0" x="0" y="0" width="16" height="16"></rect>
                        <path d="M5.73809524,3.31428571 L5.61904762,3.31428571 C5.68452381,3.31428571 5.73809524,3.26285714 5.73809524,3.2 L5.73809524,3.31428571 L10.2619048,3.31428571 L10.2619048,3.2 C10.2619048,3.26285714 10.3154762,3.31428571 10.3809524,3.31428571 L10.2619048,3.31428571 L10.2619048,4.34285714 L11.3333333,4.34285714 L11.3333333,3.2 C11.3333333,2.69571429 10.90625,2.28571429 10.3809524,2.28571429 L5.61904762,2.28571429 C5.09375,2.28571429 4.66666667,2.69571429 4.66666667,3.2 L4.66666667,4.34285714 L5.73809524,4.34285714 L5.73809524,3.31428571 Z M13.2380952,4.34285714 L2.76190476,4.34285714 C2.4985119,4.34285714 2.28571429,4.54714286 2.28571429,4.8 L2.28571429,5.25714286 C2.28571429,5.32 2.33928571,5.37142857 2.4047619,5.37142857 L3.30357143,5.37142857 L3.67113095,12.8428571 C3.69494048,13.33 4.11458333,13.7142857 4.62202381,13.7142857 L11.3779762,13.7142857 C11.8869048,13.7142857 12.3050595,13.3314286 12.328869,12.8428571 L12.6964286,5.37142857 L13.5952381,5.37142857 C13.6607143,5.37142857 13.7142857,5.32 13.7142857,5.25714286 L13.7142857,4.8 C13.7142857,4.54714286 13.5014881,4.34285714 13.2380952,4.34285714 Z M11.2633929,12.6857143 L4.73660714,12.6857143 L4.3764881,5.37142857 L11.6235119,5.37142857 L11.2633929,12.6857143 Z" id="形状"></path>
                    </g>
                </g>
            </g>
        </g>
    </g>
</svg>