<?xml version="1.0" encoding="UTF-8"?>
<svg width="16px" height="16px" viewBox="0 0 16 16" version="1.1" xmlns="http://www.w3.org/2000/svg" xmlns:xlink="http://www.w3.org/1999/xlink">
    <title>拖拽备份</title>
    <g id="【薪酬】" stroke="none" stroke-width="1" fill="none" fill-rule="evenodd">
        <g id="【办公逸-薪酬】智能算薪-薪资计算-薪资组-配置计薪规则-增加自定义公式" transform="translate(-397.000000, -651.000000)" fill="#000000" fill-rule="nonzero">
            <g id="拖拽备份" transform="translate(405.000000, 659.000000) rotate(-90.000000) translate(-405.000000, -659.000000) translate(397.000000, 651.000000)">
                <rect id="矩形" opacity="0" x="0" y="0" width="16" height="16"></rect>
                <path d="M3.42857142,9.14285714 C2.85714284,9.14285714 2.28571428,9.71428572 2.28571428,10.2857143 C2.28571428,10.8571428 2.85714286,11.4285714 3.42857142,11.4285714 C3.99999998,11.4285714 4.57142858,10.8571428 4.57142858,10.2857143 C4.57142858,9.71428572 4,9.14285714 3.42857142,9.14285714 L3.42857142,9.14285714 Z M12.5714286,6.85714286 C13.1428572,6.85714286 13.7142857,6.28571428 13.7142857,5.71428572 C13.7142857,5.14285716 13.1428571,4.57142858 12.5714286,4.57142858 C12,4.57142858 11.4285714,5.14285716 11.4285714,5.71428572 C11.4285714,6.28571428 12,6.85714286 12.5714286,6.85714286 Z M3.42857142,4.57142858 C2.85714284,4.57142858 2.28571428,5.14285716 2.28571428,5.71428572 C2.28571428,6.28571428 2.85714286,6.85714286 3.42857142,6.85714286 C3.99999998,6.85714286 4.57142858,6.28571428 4.57142858,5.71428572 C4.57142858,5.14285716 4,4.57142858 3.42857142,4.57142858 L3.42857142,4.57142858 Z M12.5714286,9.14285714 C12,9.14285714 11.4285714,9.71428572 11.4285714,10.2857143 C11.4285714,10.8571428 12,11.4285714 12.5714286,11.4285714 C13.1428572,11.4285714 13.7142857,10.8571428 13.7142857,10.2857143 C13.7142857,9.71428572 13.1428571,9.14285714 12.5714286,9.14285714 Z M8,4.57142858 C7.42857142,4.57142858 6.85714286,5.14285716 6.85714286,5.71428572 C6.85714286,6.28571428 7.42857144,6.85714286 8,6.85714286 C8.57142856,6.85714286 9.14285714,6.28571428 9.14285714,5.71428572 C9.14285714,5.14285716 8.57142856,4.57142858 8,4.57142858 Z M8,9.14285714 C7.42857142,9.14285714 6.85714286,9.71428572 6.85714286,10.2857143 C6.85714286,10.8571428 7.42857144,11.4285714 8,11.4285714 C8.57142856,11.4285714 9.14285714,10.8571428 9.14285714,10.2857143 C9.14285714,9.71428572 8.57142856,9.14285714 8,9.14285714 Z" id="形状"></path>
            </g>
        </g>
    </g>
</svg>