<?xml version="1.0" encoding="UTF-8"?>
<svg width="12px" height="12px" viewBox="0 0 12 12" version="1.1" xmlns="http://www.w3.org/2000/svg" xmlns:xlink="http://www.w3.org/1999/xlink">
    <title>Outlined线性 Question Circle Line</title>
    <g id="【人事系统】组织管理" stroke="none" stroke-width="1" fill="none" fill-rule="evenodd">
        <g id="【办公逸-人事系统】组织管理" transform="translate(-1151.000000, -525.000000)" fill="#8C8C8C">
            <g id="编组-6" transform="translate(1111.000000, 522.000000)">
                <g id="question-circle" transform="translate(40.000000, 3.000000)">
                    <rect id="矩形" fill-rule="nonzero" opacity="0" x="0" y="0" width="12" height="12"></rect>
                    <path d="M6,0.75 C8.89921875,0.75 11.25,3.10078125 11.25,6 C11.25,8.89921875 8.89921875,11.25 6,11.25 C3.10078125,11.25 0.75,8.89921875 0.75,6 C0.75,3.10078125 3.10078125,0.75 6,0.75 Z M6,1.640625 C3.59296875,1.640625 1.640625,3.59296875 1.640625,6 C1.640625,8.40703125 3.59296875,10.359375 6,10.359375 C8.40703125,10.359375 10.359375,8.40703125 10.359375,6 C10.359375,3.59296875 8.40703125,1.640625 6,1.640625 Z M6,8.109375 C6.25888348,8.109375 6.46875,8.31924152 6.46875,8.578125 C6.46875,8.83700848 6.25888348,9.046875 6,9.046875 C5.74111652,9.046875 5.53125,8.83700848 5.53125,8.578125 C5.53125,8.31924152 5.74111652,8.109375 6,8.109375 Z M6,3.234375 C6.4921875,3.234375 6.95625,3.403125 7.3078125,3.71132812 C7.6734375,4.03125 7.875,4.46132812 7.87383321,4.921875 C7.87383321,5.59921875 7.42734375,6.20859375 6.7359375,6.47460938 C6.51914062,6.5578125 6.37382812,6.76875 6.37382812,6.99960937 L6.37382812,6.99960937 L6.37382812,7.265625 C6.37382812,7.3171875 6.33164062,7.359375 6.28007812,7.359375 L6.28007812,7.359375 L5.71757812,7.359375 C5.66601562,7.359375 5.62382812,7.3171875 5.62382812,7.265625 L5.62382812,7.265625 L5.62382812,7.01367188 C5.62382812,6.74296875 5.70351562,6.47578125 5.85703125,6.253125 C6.00820312,6.03515625 6.21914062,5.86875 6.46757812,5.77382812 C6.8671875,5.6203125 7.125,5.28632813 7.125,4.921875 C7.125,4.40507812 6.61992187,3.984375 6,3.984375 C5.38007812,3.984375 4.875,4.40507812 4.875,4.921875 L4.875,4.921875 L4.875,5.0109375 C4.875,5.0625 4.8328125,5.1046875 4.78125,5.1046875 L4.78125,5.1046875 L4.21875,5.1046875 C4.1671875,5.1046875 4.125,5.0625 4.125,5.0109375 L4.125,5.0109375 L4.125,4.921875 C4.125,4.46132812 4.3265625,4.03125 4.6921875,3.71132812 C5.04375,3.40429688 5.5078125,3.234375 6,3.234375 Z" id="颜色"></path>
                </g>
            </g>
        </g>
    </g>
</svg>