<?xml version="1.0" encoding="utf-8"?>
<svg version="1.1" xmlns:xlink="http://www.w3.org/1999/xlink" width="43px" height="41px" xmlns="http://www.w3.org/2000/svg">
  <g transform="matrix(1 0 0 1 -817 -426 )">
    <path d="M 817 426  L 860 426  L 860 467  L 817 467  L 817 426  " fill-rule="nonzero" fill="#cccccc" stroke="none" />
    <path d="M 820 429  L 857 429  L 857 464  L 820 464  L 820 429  " fill-rule="nonzero" fill="#ffffff" stroke="none" />
    <path d="M 842.435 438.3  C 840.713 438.3  839.36 436.947  839.36 435.225  C 839.36 433.503  840.713 432.15  842.435 432.15  C 844.157 432.15  845.51 433.503  845.51 435.225  C 845.51 436.947  844.157 438.3  842.435 438.3  " fill-rule="nonzero" fill="#cccccc" stroke="none" />
    <path d="M 821 463  L 821 444.85  L 829.75 436.6  L 842 444.120930232558  L 849 441.55  L 856 444.120930232558  L 856 463  L 821 463  " fill-rule="nonzero" fill="#169bd5" stroke="none" />
  </g>
</svg>