<?xml version="1.0" encoding="utf-8"?>
<svg version="1.1" xmlns:xlink="http://www.w3.org/1999/xlink" width="15px" height="15px" xmlns="http://www.w3.org/2000/svg">
  <g transform="matrix(1 0 0 1 -486 -258 )">
    <path d="M 13.371249994419644 0.871250005580357  C 13.47219805081329 0.7667307690369662  13.611273702270767 0.7077027525120925  13.75658296177362 0.7077027525120925  C 14.052449792040118 0.7077027525120925  14.292297247487907 0.9475502079598819  14.292297247487907 1.2434170382263783  C 14.292297247487907 1.3887262977292347  14.233269230963034 1.5278019491867085  14.128749994419643 1.6287500055803568  L 6.553214280133928 9.204464280133926  C 6.452739856043468 9.304938704224387  6.316467293220355 9.36138464792506  6.174375 9.36138464792506  C 5.878483116876274 9.36138464792506  5.638615352074939 9.121516883123727  5.638615352074939 8.825625  C 5.638615352074939 8.683532706779644  5.695061295775612 8.547260143956533  5.795535719866071 8.446785719866071  L 13.371249994419644 0.8714285658482143  Z M 13.214285708705358 12.321428571428571  L 13.214285708705358 6.428571428571428  C 13.214285708705358 6.132704598304932  13.454133164153147 5.892857142857142  13.749999994419642 5.892857142857142  C 14.04586682468614 5.892857142857142  14.285714280133929 6.132704598304932  14.285714280133929 6.428571428571428  L 14.285714280133929 12.321428571428571  C 14.285714280133929 13.406249999999998  13.40625 14.285714280133929  12.321428571428571 14.285714280133929  L 2.678571428571429 14.285714280133929  C 1.5937499999999998 14.285714280133929  0.7142857198660715 13.40625  0.7142857198660715 12.321428571428571  L 0.7142857198660715 2.678571428571429  C 0.7142857198660715 1.5937499999999998  1.5937499999999998 0.7142857198660715  2.678571428571429 0.7142857198660715  L 8.392857137276787 0.7142857198660715  C 8.688723967543282 0.7142857198660718  8.928571422991073 0.9541331753138611  8.928571422991073 1.2500000055803573  C 8.928571422991073 1.5458668358468537  8.688723967543282 1.7857142912946433  8.392857137276787 1.7857142912946433  L 2.678571428571429 1.7857142912946433  C 2.18546004787588 1.7857142912946433  1.7857142912946427 2.185460047875881  1.7857142912946427 2.678571428571429  L 1.7857142912946427 12.321428571428571  C 1.7857142912946427 12.81453995212412  2.1854600478758806 13.214285708705358  2.678571428571429 13.214285708705358  L 12.321428571428571 13.214285708705358  C 12.81453995212412 13.214285708705358  13.214285708705358 12.81453995212412  13.214285708705358 12.321428571428571  Z " fill-rule="nonzero" fill="#1aac88" stroke="none" transform="matrix(1 0 0 1 486 258 )" />
  </g>
</svg>