<?xml version="1.0" encoding="utf-8"?>
<svg version="1.1" xmlns:xlink="http://www.w3.org/1999/xlink" width="16px" height="15px" xmlns="http://www.w3.org/2000/svg">
  <g transform="matrix(1 0 0 1 -2642 -420 )">
    <path d="M 15.703125 11.125  C 15.703125 10.75  15.3984375 10.4453125  15.0234375 10.4453125  L 13.890625 10.4453125  L 13.890625 7.5  C 13.890625 7.125  13.5859375 6.8203125  13.2109375 6.8203125  L 8.453125 6.8203125  L 8.453125 4.5546875  L 9.5859375 4.5546875  C 9.9609375 4.5546875  10.265625 4.25  10.265625 3.8750000000000004  L 10.265625 0.703125  C 10.265625 0.328125  9.9609375 0.0234375  9.5859375 0.0234375  L 6.4140625 0.0234375  C 6.0390625 0.0234375  5.734375 0.328125  5.734375 0.703125  L 5.734375 3.8750000000000004  C 5.734375 4.25  6.0390625 4.5546875  6.4140625 4.5546875  L 7.546875 4.5546875  L 7.546875 6.8203125  L 2.7890625 6.8203125  C 2.4140625 6.8203125  2.109375 7.125  2.109375 7.5  L 2.109375 10.4453125  L 0.9765625 10.4453125  C 0.6015625 10.4453125  0.296875 10.75  0.296875 11.125  L 0.296875 14.296875  C 0.296875 14.671875  0.6015625 14.9765625  0.9765625 14.9765625  L 4.1484375 14.9765625  C 4.5234375 14.9765625  4.828125 14.671875  4.828125 14.296875  L 4.828125 11.125  C 4.828125 10.75  4.5234375 10.4453125  4.1484375 10.4453125  L 3.015625 10.4453125  L 3.015625 7.7265625  L 7.546875 7.7265625  L 7.546875 10.4453125  L 6.4140625 10.4453125  C 6.0390625 10.4453125  5.734375 10.75  5.734375 11.125  L 5.734375 14.296875  C 5.734375 14.671875  6.0390625 14.9765625  6.4140625 14.9765625  L 9.5859375 14.9765625  C 9.9609375 14.9765625  10.265625 14.671875  10.265625 14.296875  L 10.265625 11.125  C 10.265625 10.75  9.9609375 10.4453125  9.5859375 10.4453125  L 8.453125 10.4453125  L 8.453125 7.7265625  L 12.984375 7.7265625  L 12.984375 10.4453125  L 11.8515625 10.4453125  C 11.4765625 10.4453125  11.171875 10.75  11.171875 11.125  L 11.171875 14.296875  C 11.171875 14.671875  11.4765625 14.9765625  11.8515625 14.9765625  L 15.0234375 14.9765625  C 15.3984375 14.9765625  15.703125 14.671875  15.703125 14.296875  L 15.703125 11.125  Z M 6.640625 3.6484375  L 6.640625 0.9296875  L 9.359375 0.9296875  L 9.359375 3.6484375  L 6.640625 3.6484375  Z M 1.203125 11.3515625  L 3.921875 11.3515625  L 3.921875 14.0703125  L 1.203125 14.0703125  L 1.203125 11.3515625  Z M 9.359375 11.3515625  L 9.359375 14.0703125  L 6.640625 14.0703125  L 6.640625 11.3515625  L 9.359375 11.3515625  Z M 14.796875 11.3515625  L 14.796875 14.0703125  L 12.078125 14.0703125  L 12.078125 11.3515625  L 14.796875 11.3515625  Z " fill-rule="nonzero" fill="#aaaaaa" stroke="none" transform="matrix(1 0 0 1 2642 420 )" />
  </g>
</svg>