<svg t="1626942917400" class="icon" viewBox="0 0 1024 1024" version="1.1" xmlns="http://www.w3.org/2000/svg" p-id="6467" width="200" height="200"><path d="M397.714285 768C415.263245 768 432.812204 761.183578 446.201608 747.550726L811.915891 375.187092C838.694701 347.921396 838.694701 303.714968 811.915891 276.449272 785.137088 249.183576 741.720058 249.183576 714.941248 276.449272L397.714285 599.443999 309.058751 509.176545C282.279942 481.910849 238.862915 481.910849 212.084106 509.176545 185.305298 536.442241 185.305298 580.648668 212.084106 607.914364L349.226964 747.550726C362.616368 761.183578 380.165327 768 397.714285 768ZM0 127.619858C0 57.137357 57.24888 0 127.619858 0L896.380141 0C966.862643 0 1024 57.24888 1024 127.619858L1024 896.380141C1024 966.862643 966.751117 1024 896.380141 1024L127.619858 1024C57.137357 1024 0 966.751117 0 896.380141L0 127.619858Z" p-id="6468" fill="#515151"></path></svg>