<svg t="1626943096424" class="icon" viewBox="0 0 1024 1024" version="1.1" xmlns="http://www.w3.org/2000/svg" p-id="13287" width="200" height="200"><path d="M904.32 453.952c-12.736-12.736-33.408-12.736-46.144 0L512 800.128 165.824 453.952c-12.736-12.736-33.408-12.736-46.144 0l-46.144 46.144c-12.736 12.736-12.736 33.408 0 46.144l415.36 415.36c12.736 12.736 33.408 12.736 46.144 0L950.4 546.24c12.736-12.736 12.736-33.408 0-46.144l-46.08-46.144zM488.896 570.048c12.736 12.736 33.408 12.736 46.144 0l415.36-415.36c12.736-12.736 12.736-33.408 0-46.144l-46.08-46.208c-12.736-12.736-33.408-12.736-46.144 0L512 408.512 165.824 62.336c-12.736-12.736-33.408-12.736-46.144 0L73.536 108.48c-12.736 12.736-12.736 33.408 0 46.144l415.36 415.424z" p-id="13288" fill="#515151"></path></svg>