<svg t="1626942513932" class="icon" viewBox="0 0 1024 1024" version="1.1" xmlns="http://www.w3.org/2000/svg" p-id="4198" width="200" height="200"><path d="M512 170.67c22.76 0 34.13 11.38 34.13 34.13v490.32c0 22.75-11.38 34.13-34.13 34.13s-34.13-11.38-34.13-34.13V204.81c0-22.76 11.37-34.14 34.13-34.14z m0 0" p-id="4199" fill="#707070"></path><path d="M204.8 170.67h614.4c22.75 0 34.13 11.38 34.13 34.13 0 22.76-11.38 34.13-34.13 34.13H204.8c-22.75 0-34.13-11.38-34.13-34.13s11.37-34.13 34.13-34.13z m0 0" p-id="4200" fill="#707070"></path><path d="M655.23 785.06H368.78c-15.63 2.05-27.44 16.73-27.44 34.14s11.81 32.08 27.44 34.13h286.45c15.7-2.05 27.44-16.73 27.44-34.13 0-17.42-11.75-32.09-27.44-34.14z" p-id="4201" fill="#707070"></path></svg>