<?xml version="1.0" encoding="UTF-8"?>
<svg width="16px" height="16px" viewBox="0 0 16 16" version="1.1" xmlns="http://www.w3.org/2000/svg" xmlns:xlink="http://www.w3.org/1999/xlink">
    <title>图标</title>
    <g id="【人事系统】组织管理" stroke="none" stroke-width="1" fill="none" fill-rule="evenodd">
        <g id="【办公逸-人事系统】组织管理" transform="translate(-468.000000, -1433.000000)">
            <g id="默认-警告-带链接" transform="translate(452.000000, 1421.000000)">
                <g id="图标" transform="translate(16.000000, 12.000000)">
                    <rect id="矩形" fill="#000000" fill-rule="nonzero" opacity="0" x="0" y="0" width="16" height="16"></rect>
                    <path d="M8,1 C4.134375,1 1,4.134375 1,8 C1,11.865625 4.134375,15 8,15 C11.865625,15 15,11.865625 15,8 C15,4.134375 11.865625,1 8,1 Z M7.5,4.625 C7.5,4.55625 7.55625,4.5 7.625,4.5 L8.375,4.5 C8.44375,4.5 8.5,4.55625 8.5,4.625 L8.5,8.875 C8.5,8.94375 8.44375,9 8.375,9 L7.625,9 C7.55625,9 7.5,8.94375 7.5,8.875 L7.5,4.625 Z M8,11.5 C7.5859375,11.5 7.25,11.1640625 7.25,10.75 C7.25,10.3359375 7.5859375,10 8,10 C8.4140625,10 8.75,10.3359375 8.75,10.75 C8.75,11.1640625 8.4140625,11.5 8,11.5 Z" id="形状" fill="#FAAD14"></path>
                </g>
            </g>
        </g>
    </g>
</svg>